<?xml version="1.0" standalone="no"?>
<!DOCTYPE svg PUBLIC "-//W3C//DTD SVG 20010904//EN"
 "http://www.w3.org/TR/2001/REC-SVG-20010904/DTD/svg10.dtd">
<svg version="1.0" xmlns="http://www.w3.org/2000/svg"
 width="300.000000pt" height="300.000000pt" viewBox="0 0 300.000000 300.000000"
 preserveAspectRatio="xMidYMid meet">
<metadata>
Created by potrace 1.11, written by Peter Selinger 2001-2013
</metadata>
<g transform="translate(0.000000,300.000000) scale(0.100000,-0.100000)"
fill="#000000" stroke="none">
<path d="M410 1350 l0 -420 245 0 245 0 0 25 0 25 -215 0 -215 0 0 395 0 395
-30 0 -30 0 0 -420z"/>
<path d="M1205 1531 c-114 -28 -182 -124 -192 -270 -15 -221 97 -352 288 -339
164 12 248 132 237 339 -5 100 -29 159 -83 212 -58 56 -159 80 -250 58z m158
-55 c44 -18 94 -77 108 -128 7 -24 12 -82 12 -130 0 -77 -3 -95 -29 -145 -39
-76 -91 -107 -179 -107 -93 1 -159 47 -190 133 -18 51 -20 182 -4 245 13 52
61 113 103 132 40 17 138 18 179 0z"/>
<path d="M1778 1531 c-85 -28 -136 -89 -145 -175 -6 -59 14 -133 42 -156 12
-10 11 -16 -7 -41 -41 -55 -21 -126 42 -151 14 -6 76 -14 138 -19 121 -9 192
-32 211 -67 6 -12 11 -41 11 -65 0 -53 -24 -88 -83 -120 -59 -31 -217 -30
-297 1 -30 12 -56 22 -57 22 -2 0 -3 -11 -3 -25 0 -22 8 -27 70 -46 95 -28
253 -24 316 8 161 84 145 285 -26 322 -28 6 -79 11 -113 11 -151 1 -221 46
-169 110 16 20 21 21 41 10 33 -17 159 -24 207 -11 61 17 106 51 132 101 19
39 22 60 22 167 l0 123 -25 0 c-22 0 -25 -4 -25 -35 0 -19 -4 -35 -10 -35 -5
0 -10 4 -10 8 0 5 -22 21 -50 36 -54 29 -162 43 -212 27z m192 -61 c53 -27 80
-75 80 -139 0 -97 -52 -149 -160 -158 -174 -16 -276 145 -167 263 60 65 160
78 247 34z"/>
<path d="M2425 1531 c-114 -28 -182 -124 -192 -270 -15 -221 97 -352 288 -339
164 12 248 132 237 339 -5 100 -29 159 -83 212 -58 56 -159 80 -250 58z m158
-55 c44 -18 94 -77 108 -128 7 -24 12 -82 12 -130 0 -77 -3 -95 -29 -145 -39
-76 -91 -107 -179 -107 -93 1 -159 47 -190 133 -18 51 -20 182 -4 245 13 52
61 113 103 132 40 17 138 18 179 0z"/>
</g>
</svg>
